<svg fill="#fff" xmlns="http://www.w3.org/2000/svg" data-name="Layer 1" viewBox="0 0 100 100" x="0px" y="0px"><title>126all</title><path d="M28.42,7.35v7H8.78V91.65H91.22V14.34H71.58v-7h-6v7H34.42v-7ZM85.22,85.65H14.78V38H85.22ZM65.58,20.34v7.18h6V20.34H85.22V32H14.78V20.34H28.42v7.18h6V20.34Z"/><path d="M29.31,58.58a5.89,5.89,0,0,0,0-11.78h0a5.89,5.89,0,0,0,0,11.78Z"/><path d="M50,58.58A5.89,5.89,0,0,0,50,46.8h0a5.89,5.89,0,0,0,0,11.78Z"/><path d="M70.7,58.58a5.89,5.89,0,0,0,0-11.78h0a5.89,5.89,0,1,0,0,11.78Z"/><path d="M29.31,64.4h0a5.89,5.89,0,1,0,5.89,5.89A5.9,5.9,0,0,0,29.3,64.4Z"/><path d="M50,76.19A5.89,5.89,0,0,0,50,64.4h0a5.89,5.89,0,0,0,0,11.78Z"/><path d="M70.7,76.19a5.89,5.89,0,0,0,0-11.78h0a5.89,5.89,0,1,0,0,11.78Z"/></svg>