<svg fill="#fff" xmlns:dc="http://purl.org/dc/elements/1.1/" xmlns:cc="http://creativecommons.org/ns#" xmlns:rdf="http://www.w3.org/1999/02/22-rdf-syntax-ns#" xmlns:svg="http://www.w3.org/2000/svg" xmlns="http://www.w3.org/2000/svg" xmlns:sodipodi="http://sodipodi.sourceforge.net/DTD/sodipodi-0.dtd" xmlns:inkscape="http://www.inkscape.org/namespaces/inkscape" version="1.1" x="0px" y="0px" viewBox="0 0 100 100"><g transform="translate(0,-952.36218)"><path style="text-indent:0;text-transform:none;direction:ltr;block-progression:tb;baseline-shift:baseline;color:#000000;enable-background:accumulate;" d="m 49.995302,976.37055 c -24.1653,0 -43.8089006,19.55254 -43.9928006,43.68565 a 2.0002,2.0002 0 0 0 0.5522,1.7497 2.0002,2.0002 0 0 0 0.0456,0.048 2.0002,2.0002 0 0 0 1.7216,0.5443 l 33.9687006,0 c 0.3311,1.2942 0.9875,2.521 1.975,3.5435 a 2.0002,2.0002 0 0 0 0.0032,0 c 3.0494,3.1435 8.1222,3.2234 11.2753,0.1875 a 2.0002,2.0002 0 0 0 0.0031,0 c 1.0911,-1.0548 1.8156,-2.3543 2.1706,-3.7313 l 33.956302,0 a 2.0002,2.0002 0 0 0 1.7381,-0.5581 2.0002,2.0002 0 0 0 0.0431,-0.041 2.0002,2.0002 0 0 0 0.001,-6e-4 2.0002,2.0002 0 0 0 10e-4,0 2.0002,2.0002 0 0 0 0.5409,-1.7334 c -0.1804,-24.13665 -19.8352,-43.69217 -44.002802,-43.69217 z m -2,4.04906 0,3.81968 a 2.0002,2.0002 0 1 0 4,0 l 0,-3.81968 c 9.4558,0.46439 18.041902,4.20405 24.651002,10.11062 l -2.911,2.9075 a 2.0002,2.0002 0 1 0 2.8266,2.83032 l 2.9306,-2.92688 c 6.1076,6.66353 9.9857,15.40723 10.4588,25.05653 l -30.737202,0 13.965902,-17.6897 a 2.0002,2.0002 0 0 0 -2.7616,-2.84527 l -19.669602,14.59407 c -2.2435,-0.2147 -4.5634,0.5347 -6.2954,2.2097 0,10e-5 0,2e-4 0,3e-4 -1.0903,1.0543 -1.8119,2.353 -2.164,3.7309 l -32.2397,0 c 0.4727,-9.6481 4.3477,-18.3906 10.4516,-25.05373 l 3.0259,3.0225 a 2.0002,2.0002 0 1 0 2.8265,-2.83031 l -3.0071,-3.00375 c 6.6073,-5.90784 15.1923,-9.64837 24.649,-10.11281 z m 12.7172,29.62469 -6.3931,8.0981 a 2.0002,2.0002 0 0 0 -0.4022,1.5731 c 0.2131,1.2596 -0.1618,2.5802 -1.1475,3.535 -0.001,9e-4 -0.0019,0 -0.0028,0 -1.605,1.5426 -4.0745,1.5029 -5.6241,-0.091 0,-2e-4 0,-4e-4 -0.001,-6e-4 -10e-4,-9e-4 -0.0017,0 -0.0025,0 -1.5357,-1.5933 -1.4951,-4.0802 0.0941,-5.6168 a 0,0 0 0 0 0,0 c 1.0074,-0.9744 2.3618,-1.305 3.6015,-1.0294 a 2.0002,2.0002 0 0 0 1.6257,-0.3463 l 8.2512,-6.1221 z" fill-opacity="1" fill-rule="evenodd" stroke="none" marker="none" visibility="visible" display="inline" overflow="visible"/></g></svg>