<svg fill="#fff" xmlns:dc="http://purl.org/dc/elements/1.1/" xmlns:cc="http://creativecommons.org/ns#" xmlns:rdf="http://www.w3.org/1999/02/22-rdf-syntax-ns#" xmlns:svg="http://www.w3.org/2000/svg" xmlns="http://www.w3.org/2000/svg" xmlns:sodipodi="http://sodipodi.sourceforge.net/DTD/sodipodi-0.dtd" xmlns:inkscape="http://www.inkscape.org/namespaces/inkscape" version="1.1" x="0px" y="0px" viewBox="0 0 100 100"><g transform="translate(0,-952.36218)"><path style="font-size:medium;font-style:normal;font-variant:normal;font-weight:normal;font-stretch:normal;text-indent:0;text-align:start;text-decoration:none;line-height:normal;letter-spacing:normal;word-spacing:normal;text-transform:none;direction:ltr;block-progression:tb;writing-mode:lr-tb;text-anchor:start;baseline-shift:baseline;opacity:1;fill-opacity:1;stroke:none;stroke-width:6;marker:none;visibility:visible;display:inline;overflow:visible;enable-background:accumulate;font-family:Sans;-inkscape-font-specification:Sans" d="M 23 5 A 3.0003 3.0003 0 0 0 20 8 L 20 15 L 13 15 A 3.0003 3.0003 0 0 0 12.6875 15 A 3.0040663 3.0040663 0 1 0 13 21 L 20 21 L 20 31 L 13 31 A 3.0003 3.0003 0 0 0 12.6875 31 A 3.0040663 3.0040663 0 1 0 13 37 L 20 37 L 20 47 L 13 47 A 3.0003 3.0003 0 0 0 12.6875 47 A 3.0040663 3.0040663 0 1 0 13 53 L 20 53 L 20 63 L 13 63 A 3.0003 3.0003 0 0 0 12.6875 63 A 3.0040663 3.0040663 0 1 0 13 69 L 20 69 L 20 79 L 13 79 A 3.0003 3.0003 0 0 0 12.6875 79 A 3.0040663 3.0040663 0 1 0 13 85 L 20 85 L 20 92 A 3.0003 3.0003 0 0 0 23 95 L 87 95 A 3.0003 3.0003 0 0 0 90 92 L 90 8 A 3.0003 3.0003 0 0 0 87 5 L 23 5 z M 26 11 L 84 11 L 84 89 L 26 89 L 26 11 z M 55 29 C 49.512687 29 45 33.51269 45 39 C 45 44.48731 49.512687 49 55 49 C 60.487314 49 65 44.48731 65 39 C 65 33.51269 60.487314 29 55 29 z M 55 35 C 57.244673 35 59 36.75533 59 39 C 59 41.24467 57.244673 43 55 43 C 52.755328 43 51 41.24467 51 39 C 51 36.75533 52.755328 35 55 35 z M 55 53 C 49.733347 53 44.91373 54.4763 41.25 57.0625 C 37.58627 59.6487 35 63.5379 35 68 A 3.0003 3.0003 0 1 0 41 68 C 41 65.8347 42.229691 63.6945 44.71875 61.9375 C 47.207809 60.1805 50.877811 59 55 59 C 59.122189 59 62.792191 60.1805 65.28125 61.9375 C 67.770309 63.6945 69 65.8347 69 68 A 3.0003 3.0003 0 1 0 75 68 C 75 63.5379 72.41373 59.6487 68.75 57.0625 C 65.08627 54.4763 60.266653 53 55 53 z " transform="translate(0,952.36218)"/></g></svg>