<svg xmlns:dc="http://purl.org/dc/elements/1.1/" xmlns:cc="http://creativecommons.org/ns#" xmlns:rdf="http://www.w3.org/1999/02/22-rdf-syntax-ns#" xmlns:svg="http://www.w3.org/2000/svg" xmlns="http://www.w3.org/2000/svg" xmlns:sodipodi="http://sodipodi.sourceforge.net/DTD/sodipodi-0.dtd" xmlns:inkscape="http://www.inkscape.org/namespaces/inkscape" viewBox="0 0 32 32" version="1.1" x="0px" y="0px"><g transform="translate(0,-1020.3622)"><path style=";font-style:normal;font-variant:normal;font-weight:normal;font-stretch:normal;font-size:medium;line-height:normal;font-family:sans-serif;text-indent:0;text-align:start;text-decoration:none;text-decoration-line:none;text-decoration-style:solid;text-decoration-color:#000000;letter-spacing:normal;word-spacing:normal;text-transform:none;direction:ltr;block-progression:tb;writing-mode:lr-tb;baseline-shift:baseline;text-anchor:start;white-space:normal;clip-rule:nonzero;display:inline;overflow:visible;visibility:visible;opacity:1;isolation:auto;mix-blend-mode:normal;color-interpolation:sRGB;color-interpolation-filters:linearRGB;solid-color:#000000;solid-opacity:1;fill-opacity:1;fill-rule:nonzero;stroke:none;stroke-width:0.99999988;stroke-linecap:round;stroke-linejoin:round;stroke-miterlimit:4;stroke-dasharray:none;stroke-dashoffset:0;stroke-opacity:1;color-rendering:auto;image-rendering:auto;shape-rendering:auto;text-rendering:auto;enable-background:accumulate" d="M 12.972656 3.1621094 A 0.50005 0.50005 0 0 0 12.525391 3.8652344 L 12.603516 4.0429688 A 0.50005 0.50005 0 0 0 12.628906 4.0917969 C 13.173887 5.035797 13.321172 6.1561842 13.039062 7.2089844 C 12.757697 8.2589845 12.071023 9.1518656 11.130859 9.6972656 C 11.128459 9.6972656 11.1275 9.6970312 11.125 9.7070312 L 11.099609 9.7226562 A 0.50005 0.50005 0 0 0 10.945312 9.8867188 C 8.970067 11.131119 7.5826778 13.130918 7.2324219 15.449219 C 6.8666339 17.870319 7.6229185 20.327047 9.2871094 22.123047 A 0.50005 0.50005 0 1 0 10.019531 21.443359 C 8.5616021 19.869959 7.900251 17.718557 8.2207031 15.597656 C 8.5400849 13.483656 9.8026647 11.632794 11.650391 10.558594 L 11.654297 10.558594 L 11.693359 10.53125 A 0.50005 0.50005 0 0 0 11.824219 10.400391 C 12.879013 9.7145905 13.678585 8.6939564 14.005859 7.4726562 C 14.294609 6.3950561 14.13391 5.286372 13.720703 4.2636719 C 17.546671 4.4751719 20.965591 6.7681964 22.464844 10.341797 C 24.06109 14.146597 23.177916 18.536281 20.232422 21.425781 A 0.50005 0.50005 0 1 0 20.931641 22.138672 C 24.167366 18.964471 25.140253 14.132925 23.386719 9.953125 C 21.633175 5.7734245 17.504876 3.0831687 12.972656 3.1679688 L 12.972656 3.1621094 z M 14.285156 12.228516 L 14.285156 12.240234 A 0.50005006 0.50005006 0 0 0 13.835938 12.939453 L 13.875 13.029297 A 0.50005006 0.50005006 0 0 0 13.900391 13.078125 C 14.138147 13.491725 14.203207 13.983812 14.080078 14.445312 C 13.957082 14.906496 13.654434 15.298733 13.244141 15.537109 L 13.240234 15.527344 L 13.21875 15.542969 A 0.50005006 0.50005006 0 0 0 13.080078 15.683594 A 0.50005006 0.50005006 0 0 0 13.078125 15.683594 C 12.079946 16.347694 11.369312 17.372559 11.189453 18.568359 C 10.99658 19.85066 11.395292 21.151516 12.273438 22.103516 A 0.50036398 0.50036398 0 0 0 13.009766 21.425781 C 12.33733 20.696781 12.029808 19.700297 12.177734 18.716797 C 12.325671 17.733297 12.911207 16.8717 13.767578 16.375 L 13.761719 16.365234 C 13.763319 16.364234 13.764025 16.365234 13.765625 16.365234 L 13.771484 16.375 L 13.792969 16.361328 A 0.50005006 0.50005006 0 0 0 14.003906 16.054688 C 14.459281 15.684787 14.891638 15.266006 15.044922 14.691406 C 15.161842 14.253106 14.971022 13.827778 14.875 13.392578 C 16.570909 13.582078 18.098154 14.540244 18.771484 16.152344 C 19.5252 17.957044 19.106922 20.038303 17.716797 21.408203 A 0.50065243 0.50065243 0 1 0 18.419922 22.121094 C 20.099657 20.465794 20.605218 17.946278 19.695312 15.767578 C 18.785386 13.588978 16.639204 12.184716 14.285156 12.228516 z M 25.693359 21.568359 C 25.59423 21.57408 25.493822 21.590575 25.394531 21.617188 L 15.626953 24.234375 A 0.50065227 0.50065227 0 0 0 15.576172 24.212891 A 0.50005003 0.50005003 0 0 0 15.527344 24.201172 L 15.236328 24.123047 L 5.8867188 21.617188 C 5.0923896 21.404387 4.2636341 21.883334 4.0507812 22.677734 C 3.8379543 23.471934 4.3169989 24.302725 5.1113281 24.515625 L 9.8457031 25.785156 L 5.1113281 27.052734 C 4.3169989 27.265534 3.8379284 28.094272 4.0507812 28.888672 C 4.2636082 29.682972 5.0923896 30.162119 5.8867188 29.949219 L 15.638672 27.335938 L 25.396484 29.951172 C 26.190823 30.163972 27.019595 29.684925 27.232422 28.890625 C 27.445275 28.096225 26.966214 27.265534 26.171875 27.052734 L 21.433594 25.783203 L 26.171875 24.513672 C 26.966204 24.300872 27.445249 23.472034 27.232422 22.677734 C 27.046175 21.982722 26.387263 21.528314 25.693359 21.568359 z M 5.4277344 22.568359 C 5.4923005 22.560209 5.5599295 22.565484 5.6289062 22.583984 L 13.708984 24.748047 L 11.777344 25.265625 L 5.3691406 23.548828 C 5.0932332 23.474828 4.941706 23.2134 5.015625 22.9375 C 5.0710835 22.7308 5.234036 22.592809 5.4277344 22.568359 z M 25.855469 22.568359 C 26.049168 22.592805 26.210166 22.728922 26.265625 22.935547 C 26.339545 23.211447 26.188022 23.474928 25.912109 23.548828 L 5.6289062 28.984375 C 5.3529895 29.058375 5.0895437 28.906359 5.015625 28.630859 C 4.94168 28.354859 5.0932242 28.091478 5.3691406 28.017578 L 25.654297 22.582031 C 25.723276 22.563531 25.790902 22.560211 25.855469 22.568359 z M 19.570312 26.283203 A 0.50005003 0.50005003 0 0 0 19.744141 26.365234 L 25.914062 28.017578 C 26.189977 28.091578 26.341518 28.354859 26.267578 28.630859 C 26.193659 28.906459 25.930214 29.058375 25.654297 28.984375 L 17.572266 26.818359 L 19.570312 26.283203 z " transform="translate(0,1020.3622)"/></g></svg>