<svg fill="#fff" xmlns="http://www.w3.org/2000/svg" xmlns:xlink="http://www.w3.org/1999/xlink" version="1.1" x="0px" y="0px" viewBox="0 0 100 100" enable-background="new 0 0 100 100" xml:space="preserve"><path d="M39.9,55.9l16-16c1.199-1.2,3.1-1.2,4.199,0c1.2,1.2,1.2,3.1,0,4.2l-16,16c-1.206,1.207-2.995,1.207-4.2,0  C38.7,58.9,38.7,57.1,39.9,55.9z M39.5,67.5c-1.8,2-5.2,2-7,0c-2-1.801-2-5.199,0-7l12.7-12.7c-3.7-1.1-7.9-0.3-10.8,2.7l-6,6  c-4.2,4.2-4.2,11,0,15.2c4.254,4.253,10.938,4.262,15.2,0l6-6c2.9-2.9,3.8-7.101,2.7-10.8L39.5,67.5z M71.6,28.4  c-4.199-4.2-11-4.2-15.199,0l-6,6c-2.9,2.9-3.8,7.1-2.7,10.8l12.7-12.7c2.076-2.078,5.28-1.91,7,0c2.085,2.086,1.902,5.289,0,7  L54.8,52.3c4.156,1.246,8.069,0.031,10.8-2.7l6-6C75.8,39.4,75.8,32.6,71.6,28.4z"/></svg>