<svg fill="#fff" xmlns="http://www.w3.org/2000/svg" data-name="Layer 1" viewBox="0 0 100 100" x="0px" y="0px"><title>45 all</title><path d="M81,16H66a8,8,0,0,0-8-8H42a8,8,0,0,0-8,8H19a3,3,0,0,0-3,3V89a3,3,0,0,0,3,3H81a3,3,0,0,0,3-3V19A3,3,0,0,0,81,16ZM40,16a2,2,0,0,1,2-2H58a2,2,0,0,1,2,2v6H40ZM78,86H22V22H34v3a3,3,0,0,0,3,3H63a3,3,0,0,0,3-3V22H78Z"/><path d="M43.25,33.5h-13a3,3,0,0,0-3,3v13a3,3,0,0,0,3,3h13a3,3,0,0,0,3-3v-13A3,3,0,0,0,43.25,33.5Zm-3,13h-7v-7h7Z"/><rect x="52" y="40" width="20.75" height="6"/><path d="M43.25,60.5h-13a3,3,0,0,0-3,3v13a3,3,0,0,0,3,3h13a3,3,0,0,0,3-3v-13A3,3,0,0,0,43.25,60.5Zm-3,13h-7v-7h7Z"/><rect x="52" y="67" width="20.75" height="6"/></svg>